<?xml version="1.0" encoding="UTF-8"?>
<svg version="1.1" xmlns="http://www.w3.org/2000/svg" width="400" height="213">
<path d="M0 0 C0.495 0.495 0.495 0.495 1 1 C3.11898637 1.12589068 5.24220665 1.18084724 7.36474609 1.20874023 C8.02997284 1.21852402 8.69519958 1.2283078 9.38058472 1.23838806 C11.59484856 1.26843269 13.80905083 1.28976631 16.0234375 1.30859375 C16.78107014 1.31516558 17.53870277 1.3217374 18.31929398 1.32850838 C22.33898296 1.36116049 26.35864503 1.38558253 30.37841797 1.4050293 C33.69196887 1.42275705 37.00465493 1.4574278 40.31787109 1.50756836 C44.32621626 1.56815769 48.3337671 1.59855968 52.34254837 1.60820198 C53.86306614 1.61670289 55.38356583 1.635387 56.90382004 1.6649456 C65.59966723 1.82474785 72.30834384 1.26282164 79.77798462 -3.61167908 C84.00612149 -6.25342987 88.07185208 -6.41763965 93 -6 C101.89971321 -1.85703006 107.09562693 4.90081655 111.25 13.625 C115.07171142 25.72708615 112.7741802 37.91416149 107.14453125 49.0703125 C106.04792602 51.09622205 104.93708879 53.11448947 103.8125 55.125 C103.27302734 56.13175781 102.73355469 57.13851562 102.17773438 58.17578125 C96.6683759 68.20813484 90.14686224 79.38685551 78.6875 83.0625 C73.46498293 82.97398276 69.41503501 81.82592224 65 79 C59.622041 73.05997403 57 62.88615482 57 55 C43.47 55 29.94 55 16 55 C15.34 58.3 14.68 61.6 14 65 C12.13473634 70.99549033 9.97845467 77.78007453 4.21484375 80.99609375 C-1.16876028 83.33002613 -5.28781097 83.39304368 -10.86328125 81.30078125 C-19.89673171 76.72069514 -25.77702046 65.82986632 -30 57 C-30.65436905 55.71842185 -31.31214116 54.43857763 -31.97265625 53.16015625 C-32.66935421 51.79431336 -33.36596754 50.4284273 -34.0625 49.0625 C-34.41376953 48.38509766 -34.76503906 47.70769531 -35.12695312 47.00976562 C-40.33393728 36.74344337 -41.85186471 25.96083382 -38.875 14.6875 C-35.83396577 6.00698916 -30.55277957 -1.22361021 -22.25 -5.375 C-13.70406333 -7.01844936 -7.09821742 -4.78604182 0 0 Z M-19 9.1875 C-20.15127648 12.42546511 -20.25753225 13.81425162 -19 17 C-17.40383995 19.00965774 -17.40383995 19.00965774 -15 20 C-11.32706204 19.77962372 -9.63033454 19.63033454 -7 17 C-6.55130827 12.3577566 -6.55130827 12.3577566 -8.0625 8.0625 C-12.09135985 5.85312525 -15.85469867 5.74732667 -19 9.1875 Z M85 9 C82.41073669 11.58926331 82.62601957 13.02705279 82.375 16.625 C82.30023438 17.62789062 82.22546875 18.63078125 82.1484375 19.6640625 C82.09945312 20.43492188 82.05046875 21.20578125 82 22 C80.14375 21.938125 80.14375 21.938125 78.25 21.875 C74.98362038 21.86341709 72.7853053 22.1431298 70 24 C69.83312552 26.41645782 69.83312552 26.41645782 70 29 C71.83737827 31.27216848 71.83737827 31.27216848 74.6015625 31.1953125 C75.59929687 31.17210938 76.59703125 31.14890625 77.625 31.125 C78.62789062 31.10695313 79.63078125 31.08890625 80.6640625 31.0703125 C81.43492187 31.04710938 82.20578125 31.02390625 83 31 C82.96519531 32.15628906 82.96519531 32.15628906 82.9296875 33.3359375 C82.91164063 34.33882812 82.89359375 35.34171875 82.875 36.375 C82.85179687 37.37273437 82.82859375 38.37046875 82.8046875 39.3984375 C82.72783152 42.16262173 82.72783152 42.16262173 85 44 C87.58354218 44.16687448 87.58354218 44.16687448 90 44 C91.75747614 39.49646738 92.19294408 35.82360189 92 31 C92.77085937 31.02320312 93.54171875 31.04640625 94.3359375 31.0703125 C95.84027344 31.09738281 95.84027344 31.09738281 97.375 31.125 C98.37273437 31.14820312 99.37046875 31.17140625 100.3984375 31.1953125 C103.16262173 31.27216848 103.16262173 31.27216848 105 29 C104.67801034 25.90073181 104.67801034 25.90073181 104 23 C101.11788698 22.03929566 99.30149956 21.89418117 96.3125 21.9375 C95.50425781 21.94652344 94.69601562 21.95554687 93.86328125 21.96484375 C93.24839844 21.97644531 92.63351562 21.98804688 92 22 C92.03480469 21.39671875 92.06960938 20.7934375 92.10546875 20.171875 C92.30587731 15.14106128 92.30587731 15.14106128 90.75 10.4375 C88.86230064 8.57684038 88.86230064 8.57684038 85 9 Z M-33 23 C-33.43060657 26.44485259 -33.63335287 28.84506242 -31.9375 31.9375 C-28.84506242 33.63335287 -26.44485259 33.43060657 -23 33 C-20.81452316 31.55851025 -20.81452316 31.55851025 -20 29 C-19.99331283 25.37942732 -19.99331283 25.37942732 -21 22 C-25.41866613 19.05422258 -29.32380755 18.77918645 -33 23 Z M-6 23 C-6.43060657 26.44485259 -6.63335287 28.84506242 -4.9375 31.9375 C-1.84506242 33.63335287 0.55514741 33.43060657 4 33 C6.18547684 31.55851025 6.18547684 31.55851025 7 29 C7.00668717 25.37942732 7.00668717 25.37942732 6 22 C1.58133387 19.05422258 -2.32380755 18.77918645 -6 23 Z M-19 36 C-19.33 36.33 -19.66 36.66 -20 37 C-19.75613765 41.90223966 -19.75613765 41.90223966 -17.3125 46 C-14.16357865 47.36169572 -12.25905865 46.92103831 -9 46 C-6.58516344 44.00162681 -6.58516344 44.00162681 -6.5625 40.0625 C-6.53938208 37.93652061 -6.53938208 37.93652061 -7 36 C-11.81642274 31.94406506 -14.02039659 32.80794653 -19 36 Z " fill="#348EDC" transform="translate(164,72)"/>
<path d="M0 0 C7.90452441 3.09307477 16.57956628 9.62711241 21 17 C21.86842776 20.67411745 21.82487792 22.6474224 19.83984375 25.90234375 C14.75072494 32.21685235 6.76617939 39.41127354 -1 42 C-0.7607292 49.17812393 1.23291246 54.08719769 4.625 60.3984375 C6 63 6 63 7 66 C2.71 66 -1.58 66 -6 66 C-6.98111975 63.8967433 -7.95983134 61.79236311 -8.9375 59.6875 C-9.48277344 58.51574219 -10.02804688 57.34398437 -10.58984375 56.13671875 C-12.94802867 50.89122708 -13.64921104 46.69535143 -13 41 C-9.13710965 32.17053634 1.28276421 26.31631799 9 21 C5.44251992 17.17504021 1.76997271 14.39088293 -2.75 11.75 C-8.92567568 8.07432432 -8.92567568 8.07432432 -10 7 C-9.6875 3.5 -9.6875 3.5 -9 0 C-5.84651502 -1.57674249 -3.39455853 -0.67891171 0 0 Z " fill="#378BD3" transform="translate(200,3)"/>
<path d="M0 0 C0 0.33 0 0.66 0 1 C-1.66611905 1.042721 -3.33382885 1.04063832 -5 1 C-5.33 0.67 -5.66 0.34 -6 0 C-7.85287502 -0.07226502 -9.70833878 -0.0838122 -11.5625 -0.0625 C-12.57441406 -0.05347656 -13.58632812 -0.04445313 -14.62890625 -0.03515625 C-15.41136719 -0.02355469 -16.19382813 -0.01195313 -17 0 C-16.67 1.98 -16.34 3.96 -16 6 C-10.06 6.99 -10.06 6.99 -4 8 C-4.33 9.32 -4.66 10.64 -5 12 C-5 11.34 -5 10.68 -5 10 C-7.97 10 -10.94 10 -14 10 C-16.24590092 13.63964751 -16.24590092 13.63964751 -15.8125 16.5625 C-14.95027053 19.14918841 -14.07804617 20.28335317 -12 22 C-13.32 22.33 -14.64 22.66 -16 23 C-16 22.01 -16 21.02 -16 20 C-16.99 20 -17.98 20 -19 20 C-19.33 20.66 -19.66 21.32 -20 22 C-19.35546875 22.22429687 -18.7109375 22.44859375 -18.046875 22.6796875 C-16 24 -16 24 -15.390625 26.3828125 C-15.34421875 27.28773437 -15.2978125 28.19265625 -15.25 29.125 C-15.19328125 30.03507812 -15.1365625 30.94515625 -15.078125 31.8828125 C-15.05234375 32.58148438 -15.0265625 33.28015625 -15 34 C-13.081875 33.9690625 -13.081875 33.9690625 -11.125 33.9375 C-7.25 33.875 -7.25 33.875 -5 35 C-5.33 35.66 -5.66 36.32 -6 37 C-6.721875 36.773125 -7.44375 36.54625 -8.1875 36.3125 C-11.75584692 35.91601701 -13.13871099 36.95622213 -16 39 C-15.97873538 42.40614946 -15.97873538 42.40614946 -15 46 C-12.06550592 48.01041003 -12.06550592 48.01041003 -9 49 C-9 49.33 -9 49.66 -9 50 C-11.31 50 -13.62 50 -16 50 C-16.33 49.01 -16.66 48.02 -17 47 C-18.94999129 47.19471111 -18.94999129 47.19471111 -21 48 C-22.28436734 49.9837767 -22.28436734 49.9837767 -23 52 C-24.32 52 -25.64 52 -27 52 C-27.33 52.99 -27.66 53.98 -28 55 C-27.34 55 -26.68 55 -26 55 C-26.33 56.32 -26.66 57.64 -27 59 C-28.29935464 56.48287811 -29.58954372 53.96170913 -30.875 51.4375 C-31.23980469 50.73302734 -31.60460937 50.02855469 -31.98046875 49.30273438 C-37.24955375 38.90826669 -38.89480201 28.1234366 -35.875 16.6875 C-32.83396577 8.00698916 -27.55277957 0.77638979 -19.25 -3.375 C-12.33348378 -4.70509927 -6.04833031 -3.6608315 0 0 Z M-30 25 C-30.43060657 28.44485259 -30.63335287 30.84506242 -28.9375 33.9375 C-25.84506242 35.63335287 -23.44485259 35.43060657 -20 35 C-17.81452316 33.55851025 -17.81452316 33.55851025 -17 31 C-16.99331283 27.37942732 -16.99331283 27.37942732 -18 24 C-22.41866613 21.05422258 -26.32380755 20.77918645 -30 25 Z " fill="#3589D2" transform="translate(161,70)"/>
<path d="M0 0 C2.87659826 -0.1356886 5.74673463 -0.23440753 8.625 -0.3125 C9.43324219 -0.35439453 10.24148437 -0.39628906 11.07421875 -0.43945312 C15.35404786 -0.52644152 18.12882671 -0.36802858 21.5234375 2.39453125 C24.25364852 5.26685104 24.93416656 5.99055385 25.1875 9.875 C25.00510688 12.91488536 24.6688086 14.49678709 23 17 C22.34 17.33 21.68 17.66 21 18 C22.12451727 20.9719385 23.22293791 23.33440687 25 26 C25 27.32 25 28.64 25 30 C23.02 30 21.04 30 19 30 C18.34 28.35 17.68 26.7 17 25 C16.34 25 15.68 25 15 25 C14.814375 24.360625 14.62875 23.72125 14.4375 23.0625 C13.05753944 20.57873787 13.05753944 20.57873787 9.375 20.25 C8.26125 20.1675 7.1475 20.085 6 20 C6 23.3 6 26.6 6 30 C4.35 30 2.7 30 1 30 C-0.75559942 28.24440058 -0.13221919 25.96417558 -0.13671875 23.62890625 C-0.13285156 22.92636719 -0.12898438 22.22382813 -0.125 21.5 C-0.12886719 20.79746094 -0.13273437 20.09492188 -0.13671875 19.37109375 C-0.12661378 14.12661378 -0.12661378 14.12661378 1 13 C3.69235776 12.76321284 6.36498156 12.57801975 9.0625 12.4375 C9.82111328 12.39431641 10.57972656 12.35113281 11.36132812 12.30664062 C13.24065438 12.20026367 15.12030244 12.09960066 17 12 C17 10.68 17 9.36 17 8 C13.53287889 6.84429296 10.4585044 6.67164707 6.8125 6.4375 C5.54019531 6.35371094 4.26789063 6.26992187 2.95703125 6.18359375 C1.98121094 6.12300781 1.00539063 6.06242188 0 6 C0 4.02 0 2.04 0 0 Z " fill="#3571A1" transform="translate(64,177)"/>
<path d="M0 0 C1.4540625 0.0309375 1.4540625 0.0309375 2.9375 0.0625 C6.05665539 5.92816832 8.77622664 11.90178162 11.25 18.0625 C11.51635254 18.7212915 11.78270508 19.38008301 12.05712891 20.05883789 C13.9375 24.8091516 13.9375 24.8091516 13.9375 27.0625 C14.5975 27.3925 15.2575 27.7225 15.9375 28.0625 C15.6075 28.7225 15.2775 29.3825 14.9375 30.0625 C5.0375 30.0625 -4.8625 30.0625 -15.0625 30.0625 C-14.0625 25.0625 -14.0625 25.0625 -13.0625 24.0625 C-11.64679877 23.97598389 -10.226905 23.95545096 -8.80859375 23.96484375 C-7.52758789 23.96967773 -7.52758789 23.96967773 -6.22070312 23.97460938 C-5.32287109 23.98298828 -4.42503906 23.99136719 -3.5 24 C-2.59830078 24.00451172 -1.69660156 24.00902344 -0.76757812 24.01367188 C1.46751314 24.02549775 3.70247437 24.0419778 5.9375 24.0625 C5.5765625 23.37542969 5.215625 22.68835938 4.84375 21.98046875 C4.3796875 21.07941406 3.915625 20.17835938 3.4375 19.25 C2.9734375 18.35667969 2.509375 17.46335938 2.03125 16.54296875 C0.9375 14.0625 0.9375 14.0625 0.9375 11.0625 C0.2775 11.0625 -0.3825 11.0625 -1.0625 11.0625 C-1.24425781 11.67738281 -1.42601562 12.29226562 -1.61328125 12.92578125 C-1.86464844 13.73402344 -2.11601562 14.54226562 -2.375 15.375 C-2.61863281 16.17550781 -2.86226563 16.97601563 -3.11328125 17.80078125 C-4.12207889 20.20445957 -5.01534236 21.46571704 -7.0625 23.0625 C-9.75 23.25 -9.75 23.25 -12.0625 23.0625 C-11.35635121 18.15868898 -9.46621082 13.846237 -7.5625 9.3125 C-7.24152344 8.53261719 -6.92054688 7.75273437 -6.58984375 6.94921875 C-3.73305222 0.07618474 -3.73305222 0.07618474 0 0 Z " fill="#3F83BE" transform="translate(320.0625,176.9375)"/>
<path d="M0 0 C2.625 0.3125 2.625 0.3125 4.14770508 2.015625 C6.81581696 6.16396356 8.46636421 10.75457623 10.3125 15.3125 C10.72822266 16.31023437 11.14394531 17.30796875 11.57226562 18.3359375 C11.96478516 19.29757813 12.35730469 20.25921875 12.76171875 21.25 C13.11967529 22.12527344 13.47763184 23.00054687 13.84643555 23.90234375 C14.625 26.3125 14.625 26.3125 14.625 30.3125 C5.055 30.3125 -4.515 30.3125 -14.375 30.3125 C-14.045 28.3325 -13.715 26.3525 -13.375 24.3125 C-7.105 24.3125 -0.835 24.3125 5.625 24.3125 C3.15 18.3725 3.15 18.3725 0.625 12.3125 C-1.49519791 15.18204129 -1.49519791 15.18204129 -2.3125 18.375 C-3.375 21.3125 -3.375 21.3125 -6.375 23.3125 C-9.0625 22.9375 -9.0625 22.9375 -11.375 22.3125 C-10.69623256 17.52341862 -8.83406236 13.4369525 -6.875 9.0625 C-6.55402344 8.3303125 -6.23304688 7.598125 -5.90234375 6.84375 C-3.05103008 0.40145133 -3.05103008 0.40145133 0 0 Z " fill="#367DBA" transform="translate(139.375,176.6875)"/>
<path d="M0 0 C1.98 0 3.96 0 6 0 C9.3139106 6.416295 12.47974069 12.88451639 15.375 19.5 C16.12910156 21.21703125 16.12910156 21.21703125 16.8984375 22.96875 C18 26 18 26 18 30 C8.1 30 -1.8 30 -12 30 C-11.34 28.02 -10.68 26.04 -10 24 C-4.06 23.67 1.88 23.34 8 23 C7.360625 21.39125 6.72125 19.7825 6.0625 18.125 C5.70285156 17.22007812 5.34320313 16.31515625 4.97265625 15.3828125 C4.05098738 13.03862333 4.05098738 13.03862333 3 11 C2.74605469 11.69867188 2.49210937 12.39734375 2.23046875 13.1171875 C1.88628906 14.02726563 1.54210937 14.93734375 1.1875 15.875 C0.68283203 17.23238281 0.68283203 17.23238281 0.16796875 18.6171875 C-1 21 -1 21 -4 23 C-6.1875 22.625 -6.1875 22.625 -8 22 C-7.40644629 16.69981613 -5.62627368 12.41863107 -3.4375 7.625 C-3.10814453 6.88894531 -2.77878906 6.15289062 -2.43945312 5.39453125 C-1.63252195 3.59355443 -0.8171174 1.79637819 0 0 Z " fill="#3B7EBA" transform="translate(256,177)"/>
<path d="M0 0 C2.23046875 -0.3125 2.23046875 -0.3125 5 0 C7.23828125 2.1875 7.23828125 2.1875 9.3125 5 C10.00988281 5.928125 10.70726562 6.85625 11.42578125 7.8125 C11.94527344 8.534375 12.46476563 9.25625 13 10 C15.57585176 7.49569968 17.91382369 5.12118543 20 2.1875 C22 0 22 0 24.6875 -0.375 C27 0 27 0 28 1 C28.08775605 3.14558827 28.10695219 5.29404421 28.09765625 7.44140625 C28.09443359 8.74658203 28.09121094 10.05175781 28.08789062 11.39648438 C28.07953401 12.7851569 28.07106905 14.17382877 28.0625 15.5625 C28.05748666 16.95507656 28.05292347 18.34765481 28.04882812 19.74023438 C28.03699434 23.1601987 28.0205088 26.58007844 28 30 C26.02 30 24.04 30 22 30 C21.67 24.39 21.34 18.78 21 13 C18.69 15.64 16.38 18.28 14 21 C12.68 20.01 11.36 19.02 10 18 C10 17.34 10 16.68 10 16 C9.34 16 8.68 16 8 16 C7.67 14.68 7.34 13.36 7 12 C6.34 12 5.68 12 5 12 C3.45703125 10.13671875 3.45703125 10.13671875 1.8125 7.6875 C1.26207031 6.88699219 0.71164063 6.08648437 0.14453125 5.26171875 C-0.23316406 4.51535156 -0.61085937 3.76898438 -1 3 C-0.67 2.01 -0.34 1.02 0 0 Z " fill="#3D89CD" transform="translate(162,177)"/>
<path d="M0 0 C0.86625 0.165 1.7325 0.33 2.625 0.5 C2.625 5.81247912 0.47227433 7.35734359 -2.94140625 11.18359375 C-4.60536407 13.39997911 -4.60536407 13.39997911 -4.3125 15.99609375 C-3.2261562 18.89753697 -1.81632701 20.76898521 0.1875 23.125 C3.625 27.17806841 3.625 27.17806841 3.625 30.5 C-0.07793685 30.83663062 -1.77034381 30.97736015 -4.75 28.625 C-6.375 26.5 -6.375 26.5 -6.375 24.5 C-7.035 24.5 -7.695 24.5 -8.375 24.5 C-8.705 23.84 -9.035 23.18 -9.375 22.5 C-10.035 22.5 -10.695 22.5 -11.375 22.5 C-12.31442865 23.80298463 -13.20269372 25.14315502 -14.0625 26.5 C-15.64453125 28.71875 -15.64453125 28.71875 -17.375 30.5 C-21.25 31 -21.25 31 -24.375 30.5 C-24.705 29.51 -25.035 28.52 -25.375 27.5 C-24.66214844 26.81550781 -23.94929688 26.13101563 -23.21484375 25.42578125 C-20.17781328 22.38661278 -17.56269362 19.08242489 -14.9375 15.6875 C-14.45450439 15.07310059 -13.97150879 14.45870117 -13.47387695 13.82568359 C-10.87148399 10.50096342 -8.42831268 7.12364892 -6.0625 3.625 C-3.9483085 0.7280029 -3.78564793 0.56083673 0 0 Z " fill="#3C83BF" transform="translate(362.375,176.5)"/>
<path d="M0 0 C0.8125 2.1875 0.8125 2.1875 1 5 C-1.4375 7.8125 -1.4375 7.8125 -4 10 C-3.01 10 -2.02 10 -1 10 C-1 9.34 -1 8.68 -1 8 C0.32 7.67 1.64 7.34 3 7 C2.34 8.65 1.68 10.3 1 12 C2.03125 12.061875 3.0625 12.12375 4.125 12.1875 C9.02705212 13.21534964 10.64632331 14.31913534 14 18 C14.63167588 21.86901475 14.29853304 24.78205375 12 28 C8.76837449 30.30830393 5.8810735 30.17641243 2 30 C1.6875 27.6875 1.6875 27.6875 2 25 C4.5 23.1875 4.5 23.1875 7 22 C3.91739167 18.91739167 -0.02594871 18.38860779 -4.15234375 17.1953125 C-7.28663548 15.87968387 -8.36736672 14.93984304 -10 12 C-10.5625 8.5625 -10.5625 8.5625 -10 5 C-7.17216274 1.33936925 -4.70107011 0 0 0 Z " fill="#3479B2" transform="translate(13,177)"/>
<path d="M0 0 C1.39456452 0.00667256 2.78911118 0.01863093 4.18359375 0.03515625 C4.89451172 0.03966797 5.60542969 0.04417969 6.33789062 0.04882812 C8.09899388 0.06064761 9.86005411 0.07858362 11.62109375 0.09765625 C11.62109375 2.07765625 11.62109375 4.05765625 11.62109375 6.09765625 C8.98109375 6.42765625 6.34109375 6.75765625 3.62109375 7.09765625 C3.29109375 14.68765625 2.96109375 22.27765625 2.62109375 30.09765625 C0.31109375 30.09765625 -1.99890625 30.09765625 -4.37890625 30.09765625 C-4.40356371 25.98593065 -4.42174584 21.87423347 -4.43383789 17.76245117 C-4.43887705 16.36270397 -4.44570841 14.96296205 -4.4543457 13.56323242 C-4.46642945 11.55519848 -4.47160432 9.54712668 -4.4765625 7.5390625 C-4.48179932 6.32935791 -4.48703613 5.11965332 -4.49243164 3.87329102 C-4.32614651 -0.19229095 -4.16443846 0.12035949 0 0 Z " fill="#407CAE" transform="translate(45.37890625,176.90234375)"/>
<path d="M0 0 C0.33 1.65 0.66 3.3 1 5 C0.05125 5.4125 -0.8975 5.825 -1.875 6.25 C-4.95042763 7.72315321 -4.95042763 7.72315321 -6.4375 9.75 C-7.40255302 13.61021207 -6.77160794 17.45678412 -5 21 C-2.67843403 21.40729228 -0.3431213 21.74438677 2 22 C1.67 24.31 1.34 26.62 1 29 C-3.14864658 29 -5.75635521 28.99066001 -9.0546875 26.36328125 C-12.54793522 22.55839524 -15.21890449 19.36315992 -15 14 C-14.07925719 9.16394897 -12.8026493 5.27160601 -9 2 C-4 -1.33333333 -4 -1.33333333 0 0 Z " fill="#3A83C2" transform="translate(224,178)"/>
<path d="M0 0 C0.99 0.33 1.98 0.66 3 1 C4.16796875 3.50390625 4.16796875 3.50390625 5.1875 6.5625 C5.53167969 7.57441406 5.87585938 8.58632812 6.23046875 9.62890625 C6.48441406 10.41136719 6.73835938 11.19382813 7 12 C7.66 12 8.32 12 9 12 C9 12.66 9 13.32 9 14 C9.66 14.33 10.32 14.66 11 15 C10.67 15.66 10.34 16.32 10 17 C0.1 17 -9.8 17 -20 17 C-19 12 -19 12 -18 11 C-16.58429877 10.91348389 -15.164405 10.89295096 -13.74609375 10.90234375 C-12.46508789 10.90717773 -12.46508789 10.90717773 -11.15820312 10.91210938 C-10.26037109 10.92048828 -9.36253906 10.92886719 -8.4375 10.9375 C-7.53580078 10.94201172 -6.63410156 10.94652344 -5.70507812 10.95117188 C-3.46998686 10.96299775 -1.23502563 10.9794778 1 11 C0.835 9.9275 0.67 8.855 0.5 7.75 C0 4 0 4 0 0 Z " fill="#3F85BF" transform="translate(325,190)"/>
<path d="M0 0 C1.0725 0.103125 2.145 0.20625 3.25 0.3125 C1.78070483 4.6722119 -0.5138599 7.74979524 -3.3125 11.375 C-7.80912199 17.4683061 -9.09512657 22.65069017 -8.75 30.3125 C-10.73 30.3125 -12.71 30.3125 -14.75 30.3125 C-15.71749615 19.79289903 -14.35900692 13.57375865 -7.75 5.3125 C-7.09 4.39210937 -6.43 3.47171875 -5.75 2.5234375 C-3.75 0.3125 -3.75 0.3125 0 0 Z " fill="#3989CB" transform="translate(395.75,176.6875)"/>
<path d="M0 0 C1.66611905 -0.042721 3.33382885 -0.04063832 5 0 C6.83219646 1.83219646 6.23901328 4.75713741 6.31640625 7.22265625 C6.35830078 8.48271484 6.40019531 9.74277344 6.44335938 11.04101562 C6.48317596 12.38150736 6.52288814 13.7220022 6.5625 15.0625 C6.60568042 16.40691523 6.64929456 17.7513166 6.69335938 19.09570312 C6.79985358 22.3970234 6.9018646 25.69842236 7 29 C4.69 29.33 2.38 29.66 0 30 C-1.3463268 27.30734639 -1.12962636 25.19885751 -1.1328125 22.1875 C-1.13410156 21.02992188 -1.13539063 19.87234375 -1.13671875 18.6796875 C-1.13285156 17.46539062 -1.12898438 16.25109375 -1.125 15 C-1.12886719 13.78570312 -1.13273437 12.57140625 -1.13671875 11.3203125 C-1.13542969 10.16273438 -1.13414062 9.00515625 -1.1328125 7.8125 C-1.13168457 6.74644531 -1.13055664 5.68039063 -1.12939453 4.58203125 C-1 2 -1 2 0 0 Z " fill="#3D719B" transform="translate(281,177)"/>
<path d="M0 0 C-0.02769181 6.10604316 -0.95843267 10.19751541 -5.234375 14.69140625 C-7.99487588 16.7373527 -10.63984635 16.93279693 -14 17 C-14.3125 14.1875 -14.3125 14.1875 -14 11 C-11.5625 9.25 -11.5625 9.25 -9 8 C-8.67 7.34 -8.34 6.68 -8 6 C-9.27875 6.020625 -10.5575 6.04125 -11.875 6.0625 C-15.75 6.125 -15.75 6.125 -18 5 C-17.8125 3.125 -17.8125 3.125 -17 1 C-12.59580589 -1.84141556 -4.7299055 -2.36495275 0 0 Z " fill="#398DD4" transform="translate(240,190)"/>
<path d="M0 0 C2.53902685 1.66484436 4.39003338 3.41830353 6 6 C6.46028111 9.87951221 6.22964884 12.31105347 5 16 C3.1875 17 3.1875 17 1 18 C-0.33790641 18.99387334 -1.67218122 19.9926892 -3 21 C-3.33 21 -3.66 21 -4 21 C-3.96519531 20.15695313 -3.93039063 19.31390625 -3.89453125 18.4453125 C-3.86746094 17.34960938 -3.84039062 16.25390625 -3.8125 15.125 C-3.77769531 14.03445312 -3.74289063 12.94390625 -3.70703125 11.8203125 C-3.85205078 10.42425781 -3.85205078 10.42425781 -4 9 C-4.99 8.34 -5.98 7.68 -7 7 C-7.33 6.34 -7.66 5.68 -8 5 C-8.66 5 -9.32 5 -10 5 C-10 4.34 -10 3.68 -10 3 C-10.66 2.67 -11.32 2.34 -12 2 C-7.73795377 -1.2288229 -5.12143519 -1.52744558 0 0 Z " fill="#378DD8" transform="translate(214,12)"/>
<path d="M0 0 C5.94 0 11.88 0 18 0 C18.33 0.99 18.66 1.98 19 3 C18.67 3.33 18.34 3.66 18 4 C18.33 4 18.66 4 19 4 C19 5.65 19 7.3 19 9 C14.125 8.125 14.125 8.125 13 7 C10.67182036 6.63239269 8.3381615 6.29758419 6 6 C6 9.3 6 12.6 6 16 C4.35 16 2.7 16 1 16 C0 15 0 15 -0.09765625 11.62109375 C-0.09191424 10.22652508 -0.07890228 8.83198403 -0.0625 7.4375 C-0.041875 4.983125 -0.02125 2.52875 0 0 Z " fill="#4087C1" transform="translate(64,191)"/>
<path d="M0 0 C7.59 0 15.18 0 23 0 C23 1.98 23 3.96 23 6 C19.15021634 7.28326122 15.50926659 7.1450798 11.5 7.125 C10.72785156 7.12886719 9.95570312 7.13273438 9.16015625 7.13671875 C5.85496263 7.13099051 3.15622502 7.05207501 0 6 C0 4.02 0 2.04 0 0 Z " fill="#3879B1" transform="translate(97,177)"/>
<path d="M0 0 C7.59 0 15.18 0 23 0 C23 1.98 23 3.96 23 6 C19.35418313 6.02887512 15.70839537 6.04675585 12.0625 6.0625 C10.50112305 6.07506836 10.50112305 6.07506836 8.90820312 6.08789062 C7.91884766 6.09111328 6.92949219 6.09433594 5.91015625 6.09765625 C4.53549194 6.10551147 4.53549194 6.10551147 3.13305664 6.11352539 C1 6 1 6 0 5 C0 3.35 0 1.7 0 0 Z " fill="#4087C0" transform="translate(97,201)"/>
<path d="M0 0 C0.83265381 0.00523682 1.66530762 0.01047363 2.52319336 0.01586914 C3.42231445 0.0190918 4.32143555 0.02231445 5.24780273 0.02563477 C6.66609375 0.03820312 6.66609375 0.03820312 8.11303711 0.05102539 C9.06243164 0.05553711 10.01182617 0.06004883 10.98999023 0.06469727 C13.34356776 0.07652429 15.69702188 0.09300514 18.05053711 0.11352539 C18.05053711 2.09352539 18.05053711 4.07352539 18.05053711 6.11352539 C11.12053711 6.11352539 4.19053711 6.11352539 -2.94946289 6.11352539 C-2.94946289 0.17175958 -2.94946289 0.17175958 0 0 Z " fill="#4187C2" transform="translate(99.949462890625,188.886474609375)"/>
<path d="M0 0 C2.62655933 0.35494045 4.57968261 0.72461964 6.8125 2.1875 C8.57144626 4.87220744 8.32076017 6.85655032 8 10 C7.13676251 12.58971247 6.46898968 13.66500737 4.25 15.25 C1.42246362 16.19251213 -1.03993304 16.1345485 -4 16 C-4.3125 13.6875 -4.3125 13.6875 -4 11 C-1.5 9.1875 -1.5 9.1875 1 8 C0.2236068 4.9254644 0.2236068 4.9254644 -2 3 C-1.34 3 -0.68 3 0 3 C0 2.01 0 1.02 0 0 Z " fill="#3A86CA" transform="translate(19,191)"/>
<path d="M0 0 C0.66 0.66 1.32 1.32 2 2 C2.99 1.34 3.98 0.68 5 0 C5.33 0.66 5.66 1.32 6 2 C6.66 1.34 7.32 0.68 8 0 C8 1.65 8 3.3 8 5 C8.66 5 9.32 5 10 5 C10 6.65 10 8.3 10 10 C10.66 10 11.32 10 12 10 C12 10.99 12 11.98 12 13 C12.66 13 13.32 13 14 13 C14.33 13.99 14.66 14.98 15 16 C12.03 16.33 9.06 16.66 6 17 C6 15.68 6 14.36 6 13 C5.34 13 4.68 13 4 13 C3.87625 12.360625 3.7525 11.72125 3.625 11.0625 C3.41875 10.381875 3.2125 9.70125 3 9 C2.34 8.67 1.68 8.34 1 8 C0.40644386 5.35139573 0.25790731 2.70802678 0 0 Z " fill="#338FE0" transform="translate(189,51)"/>
<path d="M0 0 C2.03529587 2.03529587 2.6384272 3.23417382 3.625 5.875 C4.01558594 6.89207031 4.01558594 6.89207031 4.4140625 7.9296875 C5 10 5 10 5 14 C-4.57 14 -14.14 14 -24 14 C-23.67 12.02 -23.34 10.04 -23 8 C-13.1 7.505 -13.1 7.505 -3 7 C-3 7.99 -3 8.98 -3 10 C-9.27 10 -15.54 10 -22 10 C-22 10.66 -22 11.32 -22 12 C-14.08 12 -6.16 12 2 12 C2 11.01 2 10.02 2 9 C1.67 9.99 1.34 10.98 1 12 C0.34 12 -0.32 12 -1 12 C-1.5625 10.0625 -1.5625 10.0625 -2 8 C-1.67 7.67 -1.34 7.34 -1 7 C-0.63239269 4.67182036 -0.29758419 2.3381615 0 0 Z " fill="#4782AE" transform="translate(149,193)"/>
<path d="M0 0 C1.32 0.33 2.64 0.66 4 1 C2.625 3 2.625 3 1 5 C0.34 5 -0.32 5 -1 5 C-0.7607292 12.17812393 1.23291246 17.08719769 4.625 23.3984375 C6 26 6 26 7 29 C2.71 29 -1.58 29 -6 29 C-10 21.25 -10 21.25 -10 19 C-9.01 19.33 -8.02 19.66 -7 20 C-7 21.32 -7 22.64 -7 24 C-6.34 24 -5.68 24 -5 24 C-5 25.32 -5 26.64 -5 28 C-2.36 27.34 0.28 26.68 3 26 C3 25.34 3 24.68 3 24 C2.34 24 1.68 24 1 24 C1 23.01 1 22.02 1 21 C0.34 21 -0.32 21 -1 21 C-1 19.35 -1 17.7 -1 16 C-1.66 16 -2.32 16 -3 16 C-3.33 15.01 -3.66 14.02 -4 13 C-4.99 13.495 -4.99 13.495 -6 14 C-5.67 12.68 -5.34 11.36 -5 10 C-4.34 10 -3.68 10 -3 10 C-3.33 8.02 -3.66 6.04 -4 4 C-3.01 3.67 -2.02 3.34 -1 3 C-0.67 2.01 -0.34 1.02 0 0 Z " fill="#3C76A3" transform="translate(200,40)"/>
<path d="M0 0 C3.68548192 3.68548192 5 7.86850209 5 13 C-4.9 13 -14.8 13 -25 13 C-24.34 11.02 -23.68 9.04 -23 7 C-16.73 7 -10.46 7 -4 7 C-4 7.33 -4 7.66 -4 8 C-9.94 8 -15.88 8 -22 8 C-22 8.99 -22 9.98 -22 11 C-14.08 11 -6.16 11 2 11 C2 10.01 2 9.02 2 8 C1.34 8 0.68 8 0 8 C0 5.36 0 2.72 0 0 Z " fill="#4882AE" transform="translate(269,194)"/>
<path d="M0 0 C2.4375 0.1875 2.4375 0.1875 3.4375 1.1875 C3.52525605 3.33308827 3.54445219 5.48154421 3.53515625 7.62890625 C3.53193359 8.93408203 3.52871094 10.23925781 3.52539062 11.58398438 C3.51703401 12.9726569 3.50856905 14.36132877 3.5 15.75 C3.49498666 17.14257656 3.49042347 18.53515481 3.48632812 19.92773438 C3.47449434 23.3476987 3.4580088 26.76757844 3.4375 30.1875 C1.4575 30.1875 -0.5225 30.1875 -2.5625 30.1875 C-2.5625 24.2475 -2.5625 18.3075 -2.5625 12.1875 C-2.2325 12.1875 -1.9025 12.1875 -1.5625 12.1875 C-1.2325 14.8275 -0.9025 17.4675 -0.5625 20.1875 C1.28316532 16.20356389 1.79772829 12.74373317 2.0625 8.375 C2.17464844 6.63283203 2.17464844 6.63283203 2.2890625 4.85546875 C2.33804688 3.97503906 2.38703125 3.09460938 2.4375 2.1875 C1.1175 2.1875 -0.2025 2.1875 -1.5625 2.1875 C-1.8925 3.1775 -2.2225 4.1675 -2.5625 5.1875 C-2.5625 4.5275 -2.5625 3.8675 -2.5625 3.1875 C-3.2225 2.8575 -3.8825 2.5275 -4.5625 2.1875 C-2.5625 0.1875 -2.5625 0.1875 0 0 Z " fill="#3E90D6" transform="translate(186.5625,176.8125)"/>
<path d="M0 0 C0.99 0.33 1.98 0.66 3 1 C3.08159574 5.16138263 2.98248524 8.9472484 2 13 C2.66 13 3.32 13 4 13 C4.33 11.68 4.66 10.36 5 9 C5.66 10.32 6.32 11.64 7 13 C4.64027231 14.17986385 3.19952268 14.1291146 0.5703125 14.1328125 C-0.74646484 14.13474609 -0.74646484 14.13474609 -2.08984375 14.13671875 C-3.00894531 14.13285156 -3.92804688 14.12898437 -4.875 14.125 C-6.24205078 14.13080078 -6.24205078 14.13080078 -7.63671875 14.13671875 C-8.51714844 14.13542969 -9.39757812 14.13414062 -10.3046875 14.1328125 C-11.10890137 14.13168457 -11.91311523 14.13055664 -12.74169922 14.12939453 C-14.95159635 14.0027734 -16.87779135 13.61146326 -19 13 C-19 12.34 -19 11.68 -19 11 C-12.73 11 -6.46 11 0 11 C-0.33 10.01 -0.66 9.02 -1 8 C-1.125 4.375 -1.125 4.375 -1 1 C-0.67 0.67 -0.34 0.34 0 0 Z " fill="#3790DC" transform="translate(146,192)"/>
<path d="M0 0 C3.96 0 7.92 0 12 0 C12 0.99 12 1.98 12 3 C11.071875 2.979375 10.14375 2.95875 9.1875 2.9375 C5.97713989 2.84230396 5.97713989 2.84230396 3 4 C3 11.26 3 18.52 3 26 C2.01 26 1.02 26 0 26 C0 17.42 0 8.84 0 0 Z " fill="#338FDE" transform="translate(43,179)"/>
<path d="M0 0 C3 3 3 3 3.29296875 5.04296875 C3.1953125 7.02864583 3.09765625 9.01432292 3 11 C3.66 11 4.32 11 5 11 C5 11.99 5 12.98 5 14 C-2.92 14 -10.84 14 -19 14 C-19 13.01 -19 12.02 -19 11 C-13.06 10.67 -7.12 10.34 -1 10 C-0.67 6.7 -0.34 3.4 0 0 Z " fill="#3590DA" transform="translate(266,191)"/>
<path d="M0 0 C2.97 0.99 5.94 1.98 9 3 C9 3.33 9 3.66 9 4 C6.36 4.66 3.72 5.32 1 6 C1 7.65 1 9.3 1 11 C1.99 10.67 2.98 10.34 4 10 C4 11.98 4 13.96 4 16 C4.66 16 5.32 16 6 16 C6.12375 16.639375 6.2475 17.27875 6.375 17.9375 C6.58125 18.618125 6.7875 19.29875 7 20 C7.66 20.33 8.32 20.66 9 21 C6.1875 21.6875 6.1875 21.6875 3 22 C0.40769496 20.21220342 0.01332395 19.03997185 -1 16 C-1.09485782 13.8350098 -1.12988077 11.66706177 -1.125 9.5 C-1.12757812 8.3553125 -1.13015625 7.210625 -1.1328125 6.03125 C-1 3 -1 3 0 0 Z " fill="#3990DC" transform="translate(126,88)"/>
<path d="M0 0 C1.98 0 3.96 0 6 0 C6.98669759 1.89192475 7.9640602 3.78871978 8.9375 5.6875 C9.48277344 6.74324219 10.02804687 7.79898438 10.58984375 8.88671875 C11.8470576 11.66234047 12.56069569 14.00272126 13 17 C12.34 16.67 11.68 16.34 11 16 C10.67 18.64 10.34 21.28 10 24 C7.22405116 22.61202558 6.92857319 21.02188553 5.75 18.1875 C5.18539063 16.87845703 5.18539063 16.87845703 4.609375 15.54296875 C3.86895334 12.45313221 4.47634855 11.68009195 6 9 C5.68873287 5.31796085 5.68873287 5.31796085 5 2 C3.35 2.33 1.7 2.66 0 3 C0 2.01 0 1.02 0 0 Z " fill="#3B7EB2" transform="translate(256,177)"/>
<path d="M0 0 C2.23046875 -0.3125 2.23046875 -0.3125 5 0 C7.23828125 2.1875 7.23828125 2.1875 9.3125 5 C10.00988281 5.928125 10.70726562 6.85625 11.42578125 7.8125 C11.94527344 8.534375 12.46476563 9.25625 13 10 C13.99 9.67 14.98 9.34 16 9 C15.67 10.32 15.34 11.64 15 13 C14.01 13 13.02 13 12 13 C12 12.34 12 11.68 12 11 C11.01 11 10.02 11 9 11 C8.67 10.01 8.34 9.02 8 8 C8 9.65 8 11.3 8 13 C8.66 13.33 9.32 13.66 10 14 C10 14.66 10 15.32 10 16 C9.34 16 8.68 16 8 16 C7.67 14.68 7.34 13.36 7 12 C6.34 12 5.68 12 5 12 C3.45703125 10.13671875 3.45703125 10.13671875 1.8125 7.6875 C1.26207031 6.88699219 0.71164063 6.08648437 0.14453125 5.26171875 C-0.23316406 4.51535156 -0.61085937 3.76898438 -1 3 C-0.67 2.01 -0.34 1.02 0 0 Z " fill="#3C81BB" transform="translate(162,177)"/>
<path d="M0 0 C1.65 0 3.3 0 5 0 C4.01 0.66 3.02 1.32 2 2 C1.66656449 4.54207971 1.66656449 4.54207971 2 7 C3.73956658 8.73956658 6.1936622 8.37190386 8.5625 8.5625 C10.356875 8.706875 12.15125 8.85125 14 9 C14 12.63 14 16.26 14 20 C13.67 20 13.34 20 13 20 C13 16.7 13 13.4 13 10 C7.06 10.495 7.06 10.495 1 11 C0.67 10.34 0.34 9.68 0 9 C-1.65 9.33 -3.3 9.66 -5 10 C-5 10.99 -5 11.98 -5 13 C-4.34 13.33 -3.68 13.66 -3 14 C-3.66 14 -4.32 14 -5 14 C-5 14.66 -5 15.32 -5 16 C-5.66 15.67 -6.32 15.34 -7 15 C-7.25 7.375 -7.25 7.375 -5 4 C-2.375 3.3125 -2.375 3.3125 0 3 C0 2.01 0 1.02 0 0 Z " fill="#3B81BD" transform="translate(233,94)"/>
<path d="M0 0 C3.90502042 0.42216437 5.93746645 1.65205761 9 4 C9.99 4 10.98 4 12 4 C11.67 4.99 11.34 5.98 11 7 C10.65772583 8.33106622 10.32248257 9.66400079 10 11 C8.02 11.33 6.04 11.66 4 12 C3.731875 11.38125 3.46375 10.7625 3.1875 10.125 C2.04443152 7.7004767 2.04443152 7.7004767 -1 6 C-1.25 3.4375 -1.25 3.4375 -1 1 C-0.67 0.67 -0.34 0.34 0 0 Z " fill="#2F6899" transform="translate(16,177)"/>
<path d="M0 0 C0.8125 2.1875 0.8125 2.1875 1 5 C-1.4375 7.8125 -1.4375 7.8125 -4 10 C-3.34 10.33 -2.68 10.66 -2 11 C-2.66 11 -3.32 11 -4 11 C-4 11.66 -4 12.32 -4 13 C-6.97 12.505 -6.97 12.505 -10 12 C-10.71281198 5.94109817 -10.71281198 5.94109817 -8.8046875 3.421875 C-5.66195845 0.67396115 -4.24052998 0 0 0 Z " fill="#3C80BC" transform="translate(13,177)"/>
<path d="M0 0 C4.96249922 1.26947654 7.76325276 3.00166518 11 7 C11 8.32 11 9.64 11 11 C7.0761503 11.46712496 4.73848568 11.18467957 1.625 8.8125 C-1 6 -1 6 -1.4375 3.25 C-1 1 -1 1 0 0 Z " fill="#3980B9" transform="translate(227,177)"/>
<path d="M0 0 C1.98 0 3.96 0 6 0 C6.061875 0.61875 6.12375 1.2375 6.1875 1.875 C6.828919 4.27761141 6.828919 4.27761141 9.5625 5.25 C10.366875 5.4975 11.17125 5.745 12 6 C11.67 7.65 11.34 9.3 11 11 C7.10375918 10.72816925 5.24156679 10.18905227 2.125 7.75 C0 5 0 5 -0.3125 2.1875 C-0.209375 1.465625 -0.10625 0.74375 0 0 Z " fill="#3A81BE" transform="translate(2,196)"/>
<path d="M0 0 C0.054348 2.0622048 0.09294961 4.12482816 0.125 6.1875 C0.14820313 7.33605469 0.17140625 8.48460937 0.1953125 9.66796875 C0.00313312 12.94654899 -0.48592856 15.10420602 -2 18 C-2.66 18.33 -3.32 18.66 -4 19 C-4.07347656 17.82630859 -4.07347656 17.82630859 -4.1484375 16.62890625 C-4.22320312 15.61699219 -4.29796875 14.60507813 -4.375 13.5625 C-4.44460937 12.55316406 -4.51421875 11.54382813 -4.5859375 10.50390625 C-4.72257813 9.67761719 -4.85921875 8.85132813 -5 8 C-5.66 7.67 -6.32 7.34 -7 7 C-7 5.02 -7 3.04 -7 1 C-4 0 -4 0 0 0 Z " fill="#3590DE" transform="translate(189,179)"/>
<path d="M0 0 C1.485 0.99 1.485 0.99 3 2 C6.13516928 2.33042688 6.13516928 2.33042688 9.76635742 2.31884766 C10.79113945 2.33391609 10.79113945 2.33391609 11.83662415 2.34928894 C14.09289719 2.38015886 16.34905137 2.39716632 18.60546875 2.4140625 C20.17060878 2.43277112 21.73573869 2.45234431 23.30085754 2.4727478 C27.41895588 2.52410748 31.53708694 2.56371256 35.65533447 2.60089111 C39.85819619 2.64090679 44.06092137 2.69201022 48.26367188 2.7421875 C56.50902136 2.83899217 64.75443834 2.92338231 73 3 C73 3.33 73 3.66 73 4 C48.91 4.33 24.82 4.66 0 5 C0 3.35 0 1.7 0 0 Z " fill="#3979AA" transform="translate(162,71)"/>
<path d="M0 0 C3.25 0.5 3.25 0.5 4.7578125 1.9921875 C8.25 6.80142857 8.25 6.80142857 8.25 9.5 C8.91 9.83 9.57 10.16 10.25 10.5 C7 11.25 7 11.25 3.25 11.5 C-0.4059641 8.96113604 -1.9363183 5.49009975 -3.75 1.5 C-2.75 0.5 -2.75 0.5 0 0 Z " fill="#3D86C1" transform="translate(372.75,176.5)"/>
<path d="M0 0 C2.625 -0.4375 2.625 -0.4375 6 0 C8.46261752 2.01335621 10.4175486 4.23912735 12 7 C12 8.32 12 9.64 12 11 C9.375 11.5 9.375 11.5 6 11 C3.54049623 8.62358757 1.62232788 6.00878539 0 3 C0 2.01 0 1.02 0 0 Z " fill="#3E86C0" transform="translate(339,177)"/>
<path d="M0 0 C2.625 0.3125 2.625 0.3125 4.1484375 2.01171875 C5.69863543 4.42723881 6.80958452 6.7739613 7.875 9.4375 C8.40867188 10.74074219 8.40867188 10.74074219 8.953125 12.0703125 C9.625 14.3125 9.625 14.3125 8.625 16.3125 C7.965 16.3125 7.305 16.3125 6.625 16.3125 C6.295 18.2925 5.965 20.2725 5.625 22.3125 C2.77619698 18.03929547 1.33509381 15.53081143 1.625 10.3125 C2.285 10.3125 2.945 10.3125 3.625 10.3125 C3.625 11.3025 3.625 12.2925 3.625 13.3125 C4.285 13.3125 4.945 13.3125 5.625 13.3125 C4.635 10.0125 3.645 6.7125 2.625 3.3125 C0.975 2.9825 -0.675 2.6525 -2.375 2.3125 C-2.705 3.9625 -3.035 5.6125 -3.375 7.3125 C-4.035 7.3125 -4.695 7.3125 -5.375 7.3125 C-3.17453244 0.41770164 -3.17453244 0.41770164 0 0 Z " fill="#3C7AAE" transform="translate(139.375,176.6875)"/>
<path d="M0 0 C0.99 0 1.98 0 3 0 C3 8.58 3 17.16 3 26 C2.01 26 1.02 26 0 26 C0 17.42 0 8.84 0 0 Z " fill="#348FDD" transform="translate(282,179)"/>
<path d="M0 0 C-0.11409593 1.45922693 -0.24165544 2.91740598 -0.375 4.375 C-0.44460937 5.18710938 -0.51421875 5.99921875 -0.5859375 6.8359375 C-1 9 -1 9 -3 11 C-2.67 7.7 -2.34 4.4 -2 1 C-4.64 1 -7.28 1 -10 1 C-9.67 1.99 -9.34 2.98 -9 4 C-9.99 3.67 -10.98 3.34 -12 3 C-12 2.34 -12 1.68 -12 1 C-12.99 1 -13.98 1 -15 1 C-15 1.99 -15 2.98 -15 4 C-12.03 4.33 -9.06 4.66 -6 5 C-6.66 6.65 -7.32 8.3 -8 10 C-8.66 9.67 -9.32 9.34 -10 9 C-9.34 8.01 -8.68 7.02 -8 6 C-9.27875 6.020625 -10.5575 6.04125 -11.875 6.0625 C-15.75 6.125 -15.75 6.125 -18 5 C-17.8125 3.125 -17.8125 3.125 -17 1 C-12.59580589 -1.84141556 -4.7299055 -2.36495275 0 0 Z " fill="#38709F" transform="translate(240,190)"/>
<path d="M0 0 C2.335892 3.50383799 3.97418511 7.1022841 5.6875 10.9375 C6.02072266 11.65357422 6.35394531 12.36964844 6.69726562 13.10742188 C7.00728516 13.80287109 7.31730469 14.49832031 7.63671875 15.21484375 C7.92248779 15.84511475 8.20825684 16.47538574 8.50268555 17.12475586 C9.10828933 19.40833106 8.73508901 20.78491952 8 23 C7.67 23 7.34 23 7 23 C5.66666667 19 4.33333333 15 3 11 C2.34 10.67 1.68 10.34 1 10 C1.309375 11.1446875 1.309375 11.1446875 1.625 12.3125 C2 15 2 15 0 18 C-3 11.375 -3 11.375 -3 8 C-3.66 8 -4.32 8 -5 8 C-4.67 6.68 -4.34 5.36 -4 4 C-3.34 4 -2.68 4 -2 4 C-1.34 5.32 -0.68 6.64 0 8 C0 5.36 0 2.72 0 0 Z " fill="#3D7AA9" transform="translate(324,180)"/>
<path d="M0 0 C5.96006848 4.93834246 8.88612965 11.71588328 10.8125 19.125 C11.29137616 26.46776772 10.89120022 32.85734203 9 40 C8.67 40 8.34 40 8 40 C8.01571045 39.40050537 8.0314209 38.80101074 8.04760742 38.18334961 C8.1104413 35.43483123 8.14914235 32.68646458 8.1875 29.9375 C8.21263672 28.99455078 8.23777344 28.05160156 8.26367188 27.08007812 C8.32565817 21.15005544 7.57895694 17.31359895 5 12 C5 10.68 5 9.36 5 8 C4.01 8 3.02 8 2 8 C1.34 5.36 0.68 2.72 0 0 Z M5 18 C7 19 7 19 7 19 Z " fill="#3E7BA9" transform="translate(266,72)"/>
<path d="M0 0 C0.66 1.32 1.32 2.64 2 4 C0.35 4.33 -1.3 4.66 -3 5 C-3.33 5.99 -3.66 6.98 -4 8 C-3.34 8 -2.68 8 -2 8 C-2.66 9.98 -3.32 11.96 -4 14 C-4.66 14 -5.32 14 -6 14 C-6 17.63 -6 21.26 -6 25 C-9.25994395 20.11008408 -9.70728864 15.73689677 -9 10 C-6.74849691 5.58038283 -3.99891607 2.88810605 0 0 Z " fill="#3C81BC" transform="translate(196,34)"/>
<path d="M0 0 C3.96 0 7.92 0 12 0 C12 1.98 12 3.96 12 6 C8.04 6 4.08 6 0 6 C0 4.02 0 2.04 0 0 Z " fill="#4586B9" transform="translate(289,201)"/>
<path d="M0 0 C0.94875 0.04125 1.8975 0.0825 2.875 0.125 C2.875 4.125 2.875 4.125 1.375 6.875 C-1.37233524 9.34760172 -1.87692306 9.44370226 -5.375 9.4375 C-6.6125 9.334375 -7.85 9.23125 -9.125 9.125 C-4.14772727 0.16590909 -4.14772727 0.16590909 0 0 Z " fill="#4085C2" transform="translate(362.125,176.875)"/>
<path d="M0 0 C0.99 0.33 1.98 0.66 3 1 C4.1328125 3.3984375 4.1328125 3.3984375 5.125 6.375 C5.45757812 7.35210937 5.79015625 8.32921875 6.1328125 9.3359375 C6.41898437 10.21507812 6.70515625 11.09421875 7 12 C7.33 12.99 7.66 13.98 8 15 C5.69 15 3.38 15 1 15 C0.83105557 13.25021843 0.66493691 11.50016388 0.5 9.75 C0.4071875 8.77546875 0.314375 7.8009375 0.21875 6.796875 C0.04199832 4.53697847 0 2.26679807 0 0 Z " fill="#358FE2" transform="translate(325,190)"/>
<path d="M0 0 C0.66 0 1.32 0 2 0 C1.57405412 1.44096586 1.13373367 2.87768712 0.6875 4.3125 C0.44386719 5.11300781 0.20023437 5.91351563 -0.05078125 6.73828125 C-1.05957889 9.14195957 -1.95284236 10.40321704 -4 12 C-6.6875 12.1875 -6.6875 12.1875 -9 12 C-8.39009109 8.44219804 -7.4216319 5.3171411 -6 2 C-4.35 2.33 -2.7 2.66 -1 3 C-0.67 2.01 -0.34 1.02 0 0 Z " fill="#3B7DB1" transform="translate(317,188)"/>
<path d="M0 0 C4.62 0 9.24 0 14 0 C11.23776722 2.76223278 8.79293383 2.57856291 5 3 C4.67 5.97 4.34 8.94 4 12 C2.68 12 1.36 12 0 12 C0 8.04 0 4.08 0 0 Z " fill="#3490DF" transform="translate(65,193)"/>
<path d="M0 0 C1.98 0.66 3.96 1.32 6 2 C6 2.66 6 3.32 6 4 C6.99 4 7.98 4 9 4 C8.67 4.66 8.34 5.32 8 6 C7.34 5.67 6.68 5.34 6 5 C6 5.99 6 6.98 6 8 C-0.15234375 8.87890625 -0.15234375 8.87890625 -2 9 C-3 8 -3 8 -3.0625 5.4375 C-3.041875 4.633125 -3.02125 3.82875 -3 3 C-2.34 3 -1.68 3 -1 3 C-0.67 2.01 -0.34 1.02 0 0 Z " fill="#368DDA" transform="translate(194,3)"/>
<path d="M0 0 C-0.495 0.350625 -0.99 0.70125 -1.5 1.0625 C-3.76982201 3.99435344 -3.3264586 6.40895535 -3 10 C-1.23863645 12.18331689 -1.23863645 12.18331689 0.9453125 12.1953125 C3.97265625 12.09765625 3.97265625 12.09765625 7 12 C6.67 12.99 6.34 13.98 6 15 C3.36 15 0.72 15 -2 15 C-2.33 14.01 -2.66 13.02 -3 12 C-3.66 12 -4.32 12 -5 12 C-5 10.02 -5 8.04 -5 6 C-5.66 6 -6.32 6 -7 6 C-7.33 6.66 -7.66 7.32 -8 8 C-9 7 -9 7 -9.0625 4.4375 C-9.041875 3.633125 -9.02125 2.82875 -9 2 C-5.86501708 0.14223235 -3.62528568 -0.20140476 0 0 Z " fill="#3B8BCE" transform="translate(135,92)"/>
<path d="M0 0 C1.67542976 0.28604898 3.34385343 0.61781233 5 1 C5 4.3 5 7.6 5 11 C3.02 11 1.04 11 -1 11 C-1.02688151 9.35425434 -1.04634123 7.70838587 -1.0625 6.0625 C-1.07410156 5.14597656 -1.08570313 4.22945312 -1.09765625 3.28515625 C-1 1 -1 1 0 0 Z " fill="#457498" transform="translate(162,196)"/>
<path d="M0 0 C5.33901011 -0.36402342 5.33901011 -0.36402342 8.15625 1.1875 C10.53503977 3.5259713 10.57926535 4.90085791 10.75 8.1875 C10.80671875 9.08855469 10.8634375 9.98960938 10.921875 10.91796875 C10.96054688 11.94857422 10.96054688 11.94857422 11 13 C12.27875 12.979375 13.5575 12.95875 14.875 12.9375 C18.75 12.875 18.75 12.875 21 14 C20.67 14.66 20.34 15.32 20 16 C19.278125 15.773125 18.55625 15.54625 17.8125 15.3125 C14.94434612 14.76673765 14.94434612 14.76673765 12.25 16.125 C9.78178198 17.83231356 9.78178198 17.83231356 9.1875 20.6875 C9.125625 21.450625 9.06375 22.21375 9 23 C8.67 23 8.34 23 8 23 C6.75071185 12.37144077 6.75071185 12.37144077 7.625 8 C8.30445237 5.07046278 8.30445237 5.07046278 6.875 3.125 C4.60789115 1.76473469 2.60623142 1.35219343 0 1 C0 0.67 0 0.34 0 0 Z " fill="#3D82B9" transform="translate(135,91)"/>
<path d="M0 0 C2.64 0 5.28 0 8 0 C7.401875 0.28875 6.80375 0.5775 6.1875 0.875 C3.80672208 2.04742026 3.80672208 2.04742026 1 4 C0.26656572 7.06556598 0.26656572 7.06556598 0 10 C-0.33 10 -0.66 10 -1 10 C-1 8.35 -1 6.7 -1 5 C-1.66 5 -2.32 5 -3 5 C-2.67 6.65 -2.34 8.3 -2 10 C-3.32 10.33 -4.64 10.66 -6 11 C-6.99 8.69 -7.98 6.38 -9 4 C-8.34 3.34 -7.68 2.68 -7 2 C-4.73725212 2.35355436 -3.04911148 2.97544426 -1 4 C-0.67 2.68 -0.34 1.36 0 0 Z " fill="#3786CB" transform="translate(158,91)"/>
<path d="M0 0 C0.99 0 1.98 0 3 0 C3.66 0.66 4.32 1.32 5 2 C5 1.34 5 0.68 5 0 C7.64 0 10.28 0 13 0 C13.1875 2.875 13.1875 2.875 13 6 C12.01 6.66 11.02 7.32 10 8 C9.67 8.66 9.34 9.32 9 10 C8.34 9.34 7.68 8.68 7 8 C7.33 7.01 7.66 6.02 8 5 C5.36 4.34 2.72 3.68 0 3 C0 2.01 0 1.02 0 0 Z " fill="#3790DE" transform="translate(225,191)"/>
<path d="M0 0 C0.33 0 0.66 0 1 0 C1.30769231 6.76923077 1.30769231 6.76923077 -1 10 C-4.23162551 12.30830393 -7.1189265 12.17641243 -11 12 C-11 10.35 -11 8.7 -11 7 C-7.88228073 5.39660152 -6.60988311 4.81025859 -3.1875 5.875 C-2.465625 6.24625 -1.74375 6.6175 -1 7 C-0.67 4.69 -0.34 2.38 0 0 Z " fill="#3B79B0" transform="translate(26,195)"/>
<path d="M0 0 C0.33 0.66 0.66 1.32 1 2 C1.66 2 2.32 2 3 2 C2.67 6.95 2.34 11.9 2 17 C0.68 16.67 -0.64 16.34 -2 16 C-2.05449838 14.27119018 -2.09301688 12.54187288 -2.125 10.8125 C-2.14820313 9.84957031 -2.17140625 8.88664063 -2.1953125 7.89453125 C-1.9913544 4.87187222 -1.26874632 2.73230015 0 0 Z " fill="#3B8FDA" transform="translate(384,189)"/>
<path d="M0 0 C4.95 0 9.9 0 15 0 C15 1.98 15 3.96 15 6 C12.36 6.33 9.72 6.66 7 7 C6.67 14.59 6.34 22.18 6 30 C5.67 30 5.34 30 5 30 C4.94214353 26.04172765 4.90645283 22.0835633 4.875 18.125 C4.85824219 16.99707031 4.84148438 15.86914062 4.82421875 14.70703125 C4.81777344 13.63066406 4.81132813 12.55429688 4.8046875 11.4453125 C4.79421387 10.45031738 4.78374023 9.45532227 4.77294922 8.43017578 C5 6 5 6 7 4 C10.625 4.375 10.625 4.375 14 5 C14 3.68 14 2.36 14 1 C9.38 1 4.76 1 0 1 C0 0.67 0 0.34 0 0 Z " fill="#315C82" transform="translate(42,177)"/>
<path d="M0 0 C5.28 0 10.56 0 16 0 C15 3 15 3 13 4 C10.7927077 4.07092842 8.58332548 4.08415025 6.375 4.0625 C5.18648438 4.05347656 3.99796875 4.04445312 2.7734375 4.03515625 C1.85820313 4.02355469 0.94296875 4.01195312 0 4 C0 2.68 0 1.36 0 0 Z " fill="#3C90DA" transform="translate(65,178)"/>
<path d="M0 0 C0.97591583 3.38317487 0.85856655 5.5657338 0 9 C0.66 9.33 1.32 9.66 2 10 C2.33 9.34 2.66 8.68 3 8 C3 10.31 3 12.62 3 15 C0.69 15.33 -1.62 15.66 -4 16 C-5.16161779 13.13421241 -4.9946154 11.98369837 -4.00390625 8.984375 C-3.52824219 7.91703125 -3.05257812 6.8496875 -2.5625 5.75 C-2.08941406 4.67234375 -1.61632812 3.5946875 -1.12890625 2.484375 C-0.75636719 1.66453125 -0.38382813 0.8446875 0 0 Z " fill="#3A79AB" transform="translate(133,184)"/>
<path d="M0 0 C0.99 0.33 1.98 0.66 3 1 C3 3.31 3 5.62 3 8 C2.4225 8.268125 1.845 8.53625 1.25 8.8125 C-1.0306367 10.01616937 -2.949935 11.44477828 -5 13 C-5.33 13 -5.66 13 -6 13 C-5.67 9.7 -5.34 6.4 -5 3 C-2 4 -2 4 -1 6 C-0.67 4.02 -0.34 2.04 0 0 Z " fill="#348EE2" transform="translate(216,20)"/>
<path d="M0 0 C2.07803895 1.8769384 3.7407491 3.48149821 5 6 C5 8 5 8 3.3125 10.3125 C1 12 1 12 -1.25 11.75 C-2.11625 11.37875 -2.11625 11.37875 -3 11 C-2.44894091 7.0507432 -1.61064629 3.65079826 0 0 Z " fill="#3B7FB6" transform="translate(251,188)"/>
<path d="M0 0 C0 0.33 0 0.66 0 1 C-1.66611905 1.042721 -3.33382885 1.04063832 -5 1 C-5.33 0.67 -5.66 0.34 -6 0 C-8.22643462 -0.12680356 -10.45748777 -0.17584894 -12.6875 -0.1875 C-13.90824219 -0.20167969 -15.12898437 -0.21585937 -16.38671875 -0.23046875 C-19.94410541 -0.00356517 -22.69249668 0.71459548 -26 2 C-19.00128717 -6.07543788 -8.63562049 -5.22682293 0 0 Z " fill="#3D7DB3" transform="translate(161,70)"/>
<path d="M0 0 C3.3 0.33 6.6 0.66 10 1 C9.67 3.31 9.34 5.62 9 8 C6.36 7.67 3.72 7.34 1 7 C0.67 4.69 0.34 2.38 0 0 Z " fill="#3C7BB1" transform="translate(216,199)"/>
<path d="M0 0 C0.12375 0.639375 0.2475 1.27875 0.375 1.9375 C0.58125 2.618125 0.7875 3.29875 1 4 C1.66 4.33 2.32 4.66 3 5 C3 5.99 3 6.98 3 8 C3.99 8.33 4.98 8.66 6 9 C5.01 9.66 4.02 10.32 3 11 C2.01 10.34 1.02 9.68 0 9 C0 8.01 0 7.02 0 6 C-0.86625 6.309375 -0.86625 6.309375 -1.75 6.625 C-4.51967567 7.08661261 -5.64561267 6.42944945 -8 5 C-3.375 0 -3.375 0 0 0 Z " fill="#378FDF" transform="translate(354,190)"/>
<path d="M0 0 C0.33 0.99 0.66 1.98 1 3 C0.67 3.66 0.34 4.32 0 5 C-0.07033769 6.87379605 -0.0843022 8.75001102 -0.0625 10.625 C-0.05347656 11.62789062 -0.04445313 12.63078125 -0.03515625 13.6640625 C-0.02355469 14.43492187 -0.01195312 15.20578125 0 16 C0.99 16.33 1.98 16.66 3 17 C2.97679687 16.19175781 2.95359375 15.38351563 2.9296875 14.55078125 C2.90261719 12.94783203 2.90261719 12.94783203 2.875 11.3125 C2.85179687 10.25675781 2.82859375 9.20101562 2.8046875 8.11328125 C3.00141271 4.97748141 3.66942346 2.82354627 5 0 C5.99 0 6.98 0 8 0 C6.125 4.875 6.125 4.875 5 6 C4.76572222 8.01594582 4.58663876 10.038474 4.4375 12.0625 C4.35371094 13.16722656 4.26992188 14.27195313 4.18359375 15.41015625 C4.12300781 16.26480469 4.06242187 17.11945313 4 18 C2.02 18 0.04 18 -2 18 C-2.054138 15.75026553 -2.09285491 13.50015617 -2.125 11.25 C-2.14820313 9.99703125 -2.17140625 8.7440625 -2.1953125 7.453125 C-2.01537302 4.27179508 -1.68998582 2.63478104 0 0 Z " fill="#4A7FAA" transform="translate(383,189)"/>
<path d="M0 0 C0.7734375 0.495 0.7734375 0.495 1.5625 1 C1.5625 1.33 1.5625 1.66 1.5625 2 C-4.3775 2.495 -4.3775 2.495 -10.4375 3 C-10.4375 3.66 -10.4375 4.32 -10.4375 5 C-12.0875 5 -13.7375 5 -15.4375 5 C-15.4375 4.34 -15.4375 3.68 -15.4375 3 C-16.0975 2.67 -16.7575 2.34 -17.4375 2 C-11.55712942 -0.47594551 -6.27700848 -2.57518297 0 0 Z " fill="#3D7FB7" transform="translate(259.4375,67)"/>
<path d="M0 0 C0.66 0 1.32 0 2 0 C2 0.66 2 1.32 2 2 C3.65 1.67 5.3 1.34 7 1 C9 4 9 4 9 8 C7.02 8 5.04 8 3 8 C2.34 6.35 1.68 4.7 1 3 C0.34 3 -0.32 3 -1 3 C-0.67 2.01 -0.34 1.02 0 0 Z " fill="#3783C3" transform="translate(80,199)"/>
<path d="M0 0 C2.4375 0.1875 2.4375 0.1875 3.4375 1.1875 C3.52525605 3.33308827 3.54445219 5.48154421 3.53515625 7.62890625 C3.53193359 8.93408203 3.52871094 10.23925781 3.52539062 11.58398438 C3.51703401 12.9726569 3.50856905 14.36132877 3.5 15.75 C3.49498666 17.14257656 3.49042347 18.53515481 3.48632812 19.92773438 C3.47449434 23.3476987 3.4580088 26.76757844 3.4375 30.1875 C1.4575 30.1875 -0.5225 30.1875 -2.5625 30.1875 C-2.5625 29.8575 -2.5625 29.5275 -2.5625 29.1875 C-0.9125 29.1875 0.7375 29.1875 2.4375 29.1875 C2.4375 20.2775 2.4375 11.3675 2.4375 2.1875 C1.1175 2.1875 -0.2025 2.1875 -1.5625 2.1875 C-1.8925 3.1775 -2.2225 4.1675 -2.5625 5.1875 C-2.5625 4.5275 -2.5625 3.8675 -2.5625 3.1875 C-3.2225 2.8575 -3.8825 2.5275 -4.5625 2.1875 C-2.5625 0.1875 -2.5625 0.1875 0 0 Z " fill="#3D75A4" transform="translate(186.5625,176.8125)"/>
<path d="M0 0 C1.98 0 3.96 0 6 0 C7.83691257 3.78187881 8.15837626 5.94568308 7 10 C6.34 9.67 5.68 9.34 5 9 C5 7.68 5 6.36 5 5 C3.35 5 1.7 5 0 5 C0 3.35 0 1.7 0 0 Z " fill="#3490DD" transform="translate(317,179)"/>
<path d="M0 0 C1.98 0 3.96 0 6 0 C5.67 3.96 5.34 7.92 5 12 C4.01 12.33 3.02 12.66 2 13 C1.34 12.34 0.68 11.68 0 11 C0.99 11 1.98 11 3 11 C1.2941742 8.22880216 1.2941742 8.22880216 0 7 C-0.04092937 4.66702567 -0.04241723 2.33294775 0 0 Z " fill="#3D83B9" transform="translate(242,82)"/>
<path d="M0 0 C2.31 0 4.62 0 7 0 C7.33 1.65 7.66 3.3 8 5 C5.64561267 6.42944945 4.51967567 7.08661261 1.75 6.625 C1.1725 6.41875 0.595 6.2125 0 6 C0 4.02 0 2.04 0 0 Z " fill="#376283" transform="translate(32,177)"/>
<path d="M0 0 C1.65 0 3.3 0 5 0 C7.15305957 3.85756507 8.39253254 6.55129785 8 11 C7.34 11 6.68 11 6 11 C5.67 10.01 5.34 9.02 5 8 C4.34 7.67 3.68 7.34 3 7 C3 6.34 3 5.68 3 5 C2.01 4.67 1.02 4.34 0 4 C0 2.68 0 1.36 0 0 Z " fill="#348FDD" transform="translate(137,179)"/>
<path d="M0 0 C0.33 0 0.66 0 1 0 C1.01417969 0.71542969 1.02835937 1.43085937 1.04296875 2.16796875 C1.4004138 9.63567211 3.07208105 15.4702611 6.13671875 22.28515625 C6.56404297 23.62900391 6.56404297 23.62900391 7 25 C6.34 25.99 5.68 26.98 5 28 C4.35089846 26.41800369 3.70585306 24.83434276 3.0625 23.25 C2.70285156 22.36828125 2.34320313 21.4865625 1.97265625 20.578125 C0.16535053 15.7876761 -0.11027551 11.90975506 -0.0625 6.75 C-0.05347656 5.48671875 -0.04445313 4.2234375 -0.03515625 2.921875 C-0.02355469 1.95765625 -0.01195313 0.9934375 0 0 Z " fill="#37719F" transform="translate(124,92)"/>
<path d="M0 0 C1.65 0.33 3.3 0.66 5 1 C5.33 2.65 5.66 4.3 6 6 C5.34 5.67 4.68 5.34 4 5 C3.67 7.64 3.34 10.28 3 13 C1 12 1 12 -0.1875 9.875 C-1.20156877 6.28675666 -0.71075869 3.62486934 0 0 Z " fill="#377FBB" transform="translate(263,188)"/>
<path d="M0 0 C0.66 0 1.32 0 2 0 C0.45454854 5.47932789 -2.15543212 10.11429181 -5 15 C-6.15941038 11.52176885 -5.70820884 9.54104422 -5 6 C-5.66 5.67 -6.32 5.34 -7 5 C-5.6875 3.5 -5.6875 3.5 -4 2 C-3.01 2 -2.02 2 -1 2 C-0.67 1.34 -0.34 0.68 0 0 Z " fill="#3E8BCB" transform="translate(272,113)"/>
<path d="M0 0 C0.66 0.33 1.32 0.66 2 1 C1.67 2.98 1.34 4.96 1 7 C-0.32 7 -1.64 7 -3 7 C-3.33 7.66 -3.66 8.32 -4 9 C-8.875 8.125 -8.875 8.125 -10 7 C-10.04063832 5.33382885 -10.042721 3.66611905 -10 2 C-9.01 3.485 -9.01 3.485 -8 5 C-7.01 5.33 -6.02 5.66 -5 6 C-5 5.34 -5 4.68 -5 4 C-4.01 3.67 -3.02 3.34 -2 3 C-2 2.34 -2 1.68 -2 1 C-1.34 0.67 -0.68 0.34 0 0 Z " fill="#346C99" transform="translate(14,184)"/>
<path d="M0 0 C0.66 0.99 1.32 1.98 2 3 C1.67 3.99 1.34 4.98 1 6 C1.99 6.33 2.98 6.66 4 7 C4 9 4 9 1.625 11.5625 C-1 14 -1 14 -3 15 C-2.67 13.02 -2.34 11.04 -2 9 C-1.34 9 -0.68 9 0 9 C0 8.34 0 7.68 0 7 C-0.99 6.67 -1.98 6.34 -3 6 C-2.01 4.02 -1.02 2.04 0 0 Z " fill="#3981BD" transform="translate(181,180)"/>
<path d="M0 0 C0.33 0 0.66 0 1 0 C1.56147811 3.85013558 1.72225879 5.90107937 -0.453125 9.2109375 C-5.19719646 14.73239882 -5.19719646 14.73239882 -9 16 C-9.33 15.01 -9.66 14.02 -10 13 C-7.75 10.5 -7.75 10.5 -5 8 C-3.68 8 -2.36 8 -1 8 C-0.67 5.36 -0.34 2.72 0 0 Z " fill="#4184BE" transform="translate(220,20)"/>
<path d="M0 0 C6.27 0 12.54 0 19 0 C19 0.66 19 1.32 19 2 C13.06 2 7.12 2 1 2 C0.67 2.66 0.34 3.32 0 4 C0 2.68 0 1.36 0 0 Z " fill="#4787B7" transform="translate(307,201)"/>
<path d="M0 0 C0.99 0 1.98 0 3 0 C3.33 0.99 3.66 1.98 4 3 C4.66 3 5.32 3 6 3 C6 3.66 6 4.32 6 5 C5.34 5 4.68 5 4 5 C4 6.32 4 7.64 4 9 C4.66 9.33 5.32 9.66 6 10 C3 10 3 10 0.8125 8.3125 C-1 6 -1 6 -1.3125 3.3125 C-1 1 -1 1 0 0 Z " fill="#3A89CC" transform="translate(212,194)"/>
<path d="M0 0 C1.32 0 2.64 0 4 0 C6 3 6 3 5.75 5.625 C5.5025 6.40875 5.255 7.1925 5 8 C4.01 8.495 4.01 8.495 3 9 C3 8.34 3 7.68 3 7 C1.68 6.67 0.36 6.34 -1 6 C-0.67 4.02 -0.34 2.04 0 0 Z " fill="#3490DE" transform="translate(257,179)"/>
<path d="M0 0 C2.5 2.25 2.5 2.25 5 5 C5 6.32 5 7.64 5 9 C3.02 9 1.04 9 -1 9 C-1.66 7.68 -2.32 6.36 -3 5 C-2.34 5 -1.68 5 -1 5 C-0.67 3.35 -0.34 1.7 0 0 Z " fill="#3E81B4" transform="translate(346,179)"/>
<path d="M0 0 C2.56695636 0.39491636 4.67123994 0.83561997 7 2 C7 3.65 7 5.3 7 7 C6.236875 6.649375 5.47375 6.29875 4.6875 5.9375 C1.95240621 4.67639116 1.95240621 4.67639116 -1 6 C-1.042721 4.33388095 -1.04063832 2.66617115 -1 1 C-0.67 0.67 -0.34 0.34 0 0 Z " fill="#387BB4" transform="translate(16,177)"/>
<path d="M0 0 C0.66 0 1.32 0 2 0 C1.52585143 5.0575847 -1.00750598 9.01000797 -4 13 C-4.99 13.495 -4.99 13.495 -6 14 C-6.33 12.68 -6.66 11.36 -7 10 C-5.68 10 -4.36 10 -3 10 C-3.185625 9.21625 -3.37125 8.4325 -3.5625 7.625 C-4 5 -4 5 -3 3 C-2.01 3 -1.02 3 0 3 C0 2.01 0 1.02 0 0 Z " fill="#3B7DB4" transform="translate(175,138)"/>
<path d="M0 0 C2.05123248 2.05123248 2.64147118 3.27005063 3.625 5.9375 C3.88539063 6.62714844 4.14578125 7.31679687 4.4140625 8.02734375 C5 10 5 10 5 13 C4.01 12.67 3.02 12.34 2 12 C2 11.01 2 10.02 2 9 C1.67 9.99 1.34 10.98 1 12 C0.34 12 -0.32 12 -1 12 C-1.5625 10.0625 -1.5625 10.0625 -2 8 C-1.67 7.67 -1.34 7.34 -1 7 C-0.63239269 4.67182036 -0.29758419 2.3381615 0 0 Z " fill="#3981BD" transform="translate(149,193)"/>
<path d="M0 0 C0.33 1.65 0.66 3.3 1 5 C-0.65 5.33 -2.3 5.66 -4 6 C-4 5.01 -4 4.02 -4 3 C-5.32 2.67 -6.64 2.34 -8 2 C-5.14066998 -0.85933002 -3.8625627 -1.2875209 0 0 Z " fill="#3C78AA" transform="translate(224,178)"/>
<path d="M0 0 C0.99 0.33 1.98 0.66 3 1 C3.94921875 3.06640625 3.94921875 3.06640625 4.6875 5.5625 C4.93886719 6.38878906 5.19023437 7.21507812 5.44921875 8.06640625 C5.63097656 8.70449219 5.81273437 9.34257812 6 10 C4.68 9.34 3.36 8.68 2 8 C1.67 8.99 1.34 9.98 1 11 C0.4254048 7.26513121 0 3.78706732 0 0 Z " fill="#388DD4" transform="translate(325,190)"/>
<path d="M0 0 C0.99 0 1.98 0 3 0 C3.04898438 0.73605469 3.09796875 1.47210938 3.1484375 2.23046875 C3.22320312 3.20628906 3.29796875 4.18210938 3.375 5.1875 C3.44460937 6.15042969 3.51421875 7.11335937 3.5859375 8.10546875 C3.8776397 11.01882983 3.8776397 11.01882983 5.1015625 13.61328125 C6.10341095 16.27471343 5.97025883 17.38030115 5 20 C2.41579552 13.77441647 0 6.83506555 0 0 Z " fill="#366999" transform="translate(221,126)"/>
<path d="M0 0 C5.875 0.875 5.875 0.875 7 2 C7.14310287 5.6691577 7.04221662 9.32715441 7 13 C10.63 13 14.26 13 18 13 C18 13.33 18 13.66 18 14 C14.04 14 10.08 14 6 14 C5.8046875 11.75390625 5.609375 9.5078125 5.4140625 7.26171875 C5.10435574 4.72775559 5.10435574 4.72775559 3 2 C2.01 1.34 1.02 0.68 0 0 Z " fill="#4588BE" transform="translate(250,80)"/>
<path d="M0 0 C1.5 1.1875 1.5 1.1875 3 3 C3.1875 5.6875 3.1875 5.6875 3 8 C1.02 8 -0.96 8 -3 8 C-3 6.02 -3 4.04 -3 2 C-2.34 2 -1.68 2 -1 2 C-0.67 1.34 -0.34 0.68 0 0 Z " fill="#338FE1" transform="translate(132,80)"/>
<path d="M0 0 C0.33 1.32 0.66 2.64 1 4 C0.34 4 -0.32 4 -1 4 C-1 4.66 -1 5.32 -1 6 C0.32 6.66 1.64 7.32 3 8 C2 9 2 9 -1.5625 9.0625 C-2.696875 9.041875 -3.83125 9.02125 -5 9 C-5.33 8.01 -5.66 7.02 -6 6 C-4 4 -2 2 0 0 Z " fill="#4479A7" transform="translate(343,198)"/>
<path d="M0 0 C2.0625 0.4375 2.0625 0.4375 4 1 C3.01 1 2.02 1 1 1 C1 1.99 1 2.98 1 4 C3.97 4.33 6.94 4.66 10 5 C9.34 6.65 8.68 8.3 8 10 C7.34 9.67 6.68 9.34 6 9 C6.66 8.01 7.32 7.02 8 6 C6.72125 6.020625 5.4425 6.04125 4.125 6.0625 C0.25 6.125 0.25 6.125 -2 5 C-1.125 1.125 -1.125 1.125 0 0 Z " fill="#325F8C" transform="translate(224,190)"/>
<path d="M0 0 C0.33 0 0.66 0 1 0 C1.309375 1.134375 1.61875 2.26875 1.9375 3.4375 C2.62924531 6.78775099 2.62924531 6.78775099 4 8 C6.67058851 8.14115161 9.32432238 8.04247107 12 8 C11.67 8.99 11.34 9.98 11 11 C8.36 11 5.72 11 3 11 C2.67 10.01 2.34 9.02 2 8 C1.34 8 0.68 8 0 8 C0 5.36 0 2.72 0 0 Z " fill="#3F77A8" transform="translate(130,96)"/>
<path d="M0 0 C1.32 0.33 2.64 0.66 4 1 C4 3.31 4 5.62 4 8 C2.68 8 1.36 8 0 8 C0 5.36 0 2.72 0 0 Z " fill="#3C92D7" transform="translate(162,198)"/>
<path d="M0 0 C3.625 -0.1875 3.625 -0.1875 7 0 C5.8141763 3.37503669 4.72426311 5.64722731 2 8 C2 6.35 2 4.7 2 3 C1.34 2.67 0.68 2.34 0 2 C0 2.66 0 3.32 0 4 C-0.66 3.67 -1.32 3.34 -2 3 C-1.34 2.01 -0.68 1.02 0 0 Z " fill="#4179A5" transform="translate(392,177)"/>
<path d="M0 0 C1.485 0.99 1.485 0.99 3 2 C7.65417169 2.34222445 7.65417169 2.34222445 12 1 C11.5 2.9375 11.5 2.9375 10 5 C7.34853265 5.81891972 4.77025253 6.16456946 2 6 C1.01 5.34 0.02 4.68 -1 4 C-0.34 4 0.32 4 1 4 C0.67 2.68 0.34 1.36 0 0 Z " fill="#3E7EB3" transform="translate(158,102)"/>
<path d="M0 0 C0.33 1.32 0.66 2.64 1 4 C0.0925 4.433125 -0.815 4.86625 -1.75 5.3125 C-4.93777831 6.83388114 -4.93777831 6.83388114 -7.1875 8.75 C-7.785625 9.1625 -8.38375 9.575 -9 10 C-9.99 9.67 -10.98 9.34 -12 9 C-8.04 6.03 -4.08 3.06 0 0 Z " fill="#4081B6" transform="translate(209,24)"/>
<path d="M0 0 C2.97 0.495 2.97 0.495 6 1 C6 1.66 6 2.32 6 3 C7.32 2.67 8.64 2.34 10 2 C9.67 2.99 9.34 3.98 9 5 C10.32 5.66 11.64 6.32 13 7 C12.34 7.66 11.68 8.32 11 9 C9.72689688 8.06558465 8.456612 7.12732889 7.1875 6.1875 C6.47980469 5.66542969 5.77210938 5.14335937 5.04296875 4.60546875 C3.21468607 3.16871123 1.60103312 1.68184237 0 0 Z " fill="#4081B6" transform="translate(198,14)"/>
<path d="M0 0 C0.99 0.33 1.98 0.66 3 1 C3 2.65 3 4.3 3 6 C2.34 6 1.68 6 1 6 C1 7.32 1 8.64 1 10 C0.01 9.67 -0.98 9.34 -2 9 C-1.34 6.03 -0.68 3.06 0 0 Z " fill="#348FDF" transform="translate(134,184)"/>
<path d="M0 0 C0.66 0 1.32 0 2 0 C2.33569297 1.62451419 2.6684796 3.24962917 3 4.875 C3.185625 5.77992187 3.37125 6.68484375 3.5625 7.6171875 C4.13734855 10.74805909 4 13.82025445 4 17 C1.03936881 11.67086386 0.70701238 5.9591043 0 0 Z " fill="#428FD5" transform="translate(155,96)"/>
<path d="M0 0 C4.55384615 -0.36923077 4.55384615 -0.36923077 6.8125 1.5 C7.204375 1.995 7.59625 2.49 8 3 C7.67 3.66 7.34 4.32 7 5 C5.125 5.5625 5.125 5.5625 3 6 C2.01 6.33 1.02 6.66 0 7 C0.66 5.68 1.32 4.36 2 3 C1.34 2.01 0.68 1.02 0 0 Z " fill="#3D8DCE" transform="translate(258,69)"/>
<path d="M0 0 C0.99 0 1.98 0 3 0 C6.125 6.625 6.125 6.625 5 10 C0.76169024 7.17446016 1.02284652 4.87819112 0 0 Z " fill="#3290DF" transform="translate(82,181)"/>
<path d="M0 0 C1.32 0.33 2.64 0.66 4 1 C2.625 3 2.625 3 1 5 C0.34 5 -0.32 5 -1 5 C-1 6.32 -1 7.64 -1 9 C-1.66 9 -2.32 9 -3 9 C-3.33 7.35 -3.66 5.7 -4 4 C-3.01 3.67 -2.02 3.34 -1 3 C-0.67 2.01 -0.34 1.02 0 0 Z " fill="#397BB2" transform="translate(200,40)"/>
<path d="M0 0 C0.99 0.33 1.98 0.66 3 1 C3 1.66 3 2.32 3 3 C2.34 3 1.68 3 1 3 C0.67 4.98 0.34 6.96 0 9 C-1.32 8.67 -2.64 8.34 -4 8 C-4 7.01 -4 6.02 -4 5 C-3.01 5 -2.02 5 -1 5 C-0.67 3.35 -0.34 1.7 0 0 Z " fill="#338FDF" transform="translate(178,186)"/>
<path d="M0 0 C1.32 0 2.64 0 4 0 C4 1.65 4 3.3 4 5 C3.01 5.33 2.02 5.66 1 6 C0.01 5.34 -0.98 4.68 -2 4 C-1.34 2.68 -0.68 1.36 0 0 Z " fill="#348ACE" transform="translate(359,179)"/>
<path d="M0 0 C1.32 0.33 2.64 0.66 4 1 C2.8141763 4.37503669 1.72426311 6.64722731 -1 9 C-1.80967438 6.08517222 -2.21845993 4.53886783 -1.0625 1.6875 C-0.711875 1.130625 -0.36125 0.57375 0 0 Z " fill="#3B82C1" transform="translate(260,131)"/>
<path d="M0 0 C1.32 0 2.64 0 4 0 C4 0.66 4 1.32 4 2 C4.66 2 5.32 2 6 2 C5.67 5.3 5.34 8.6 5 12 C4.34 11.67 3.68 11.34 3 11 C3.0928125 9.39125 3.0928125 9.39125 3.1875 7.75 C2.99456691 3.89133813 2.60334924 2.71182212 0 0 Z " fill="#4384BC" transform="translate(167,92)"/>
<path d="M0 0 C1.65 0.99 3.3 1.98 5 3 C4.67 4.65 4.34 6.3 4 8 C3.67 7.34 3.34 6.68 3 6 C2.01 5.67 1.02 5.34 0 5 C0 3.35 0 1.7 0 0 Z " fill="#3B88CB" transform="translate(252,186)"/>
<path d="M0 0 C0.763125 0.825 1.52625 1.65 2.3125 2.5 C4.75434142 5.34055197 4.75434142 5.34055197 8 5 C8.33 5.99 8.66 6.98 9 8 C7.68 8.33 6.36 8.66 5 9 C5 8.34 5 7.68 5 7 C4.01 7 3.02 7 2 7 C1.34 4.69 0.68 2.38 0 0 Z " fill="#407EB1" transform="translate(169,181)"/>
<path d="M0 0 C0.33 1.65 0.66 3.3 1 5 C0.01 5.33 -0.98 5.66 -2 6 C-2 4.68 -2 3.36 -2 2 C-3.98 2.66 -5.96 3.32 -8 4 C-4.5 0 -4.5 0 0 0 Z " fill="#3B6F98" transform="translate(13,177)"/>
<path d="M0 0 C0.33 0.66 0.66 1.32 1 2 C0.01 2 -0.98 2 -2 2 C-2 2.99 -2 3.98 -2 5 C-0.68 5 0.64 5 2 5 C2 4.34 2 3.68 2 3 C2.99 3.33 3.98 3.66 5 4 C4.67 4.66 4.34 5.32 4 6 C1.67843403 6.40729228 -0.6568787 6.74438677 -3 7 C-3 5.02 -3 3.04 -3 1 C-2.01 0.67 -1.02 0.34 0 0 Z " fill="#427FAA" transform="translate(229,200)"/>
<path d="M0 0 C2.475 0.99 2.475 0.99 5 2 C4.67 3.65 4.34 5.3 4 7 C2.68 6.67 1.36 6.34 0 6 C0.66 6 1.32 6 2 6 C1.34 4.02 0.68 2.04 0 0 Z " fill="#3D719B" transform="translate(9,200)"/>
<path d="M0 0 C2.6855594 2.6855594 3.06049974 5.37621328 4 9 C3.34 9.66 2.68 10.32 2 11 C2 10.01 2 9.02 2 8 C1.34 8 0.68 8 0 8 C0 5.36 0 2.72 0 0 Z " fill="#3D7DB2" transform="translate(269,194)"/>
<path d="M0 0 C0.99 0 1.98 0 3 0 C3.66 2.31 4.32 4.62 5 7 C3.68 6.67 2.36 6.34 1 6 C0.67 4.02 0.34 2.04 0 0 Z " fill="#3491DF" transform="translate(4,183)"/>
<path d="M0 0 C1.65 0 3.3 0 5 0 C5 1.32 5 2.64 5 4 C3.35 4.33 1.7 4.66 0 5 C0 3.35 0 1.7 0 0 Z " fill="#4390D5" transform="translate(33,178)"/>
<path d="M0 0 C3.125 -0.1875 3.125 -0.1875 6 0 C6 1.32 6 2.64 6 4 C5.01 4.495 5.01 4.495 4 5 C4 4.01 4 3.02 4 2 C2.02 2.33 0.04 2.66 -2 3 C-1.34 2.01 -0.68 1.02 0 0 Z " fill="#427094" transform="translate(359,177)"/>
<path d="M0 0 C0.66 0 1.32 0 2 0 C2.66 2.31 3.32 4.62 4 7 C3.34 7.66 2.68 8.32 2 9 C1.67 7.35 1.34 5.7 1 4 C0.34 4 -0.32 4 -1 4 C-0.67 2.68 -0.34 1.36 0 0 Z " fill="#326FA4" transform="translate(320,184)"/>
<path d="M0 0 C2.64 0.99 5.28 1.98 8 3 C8 3.33 8 3.66 8 4 C5.36 4.33 2.72 4.66 0 5 C0 3.35 0 1.7 0 0 Z " fill="#3491E4" transform="translate(127,88)"/>
<path d="M0 0 C0.33 0 0.66 0 1 0 C1 2.31 1 4.62 1 7 C0.01 7.33 -0.98 7.66 -2 8 C-2.33 8.99 -2.66 9.98 -3 11 C-2.53199289 6.94393835 -2.12046792 3.53411321 0 0 Z " fill="#3979A8" transform="translate(128,80)"/>
<path d="M0 0 C0.66 0.33 1.32 0.66 2 1 C2 2.32 2 3.64 2 5 C0.02 5 -1.96 5 -4 5 C-4.33 4.01 -4.66 3.02 -5 2 C-2.525 2.495 -2.525 2.495 0 3 C0 2.01 0 1.02 0 0 Z " fill="#4578A0" transform="translate(87,202)"/>
<path d="M0 0 C0.82638376 2.89234315 1 4.88742431 1 8 C-0.65 8 -2.3 8 -4 8 C-3.67 7.01 -3.34 6.02 -3 5 C-2.34 5 -1.68 5 -1 5 C-0.67 3.35 -0.34 1.7 0 0 Z " fill="#3A91DF" transform="translate(345,197)"/>
<path d="M0 0 C1.65 0.33 3.3 0.66 5 1 C5.33 2.65 5.66 4.3 6 6 C5.34 5.67 4.68 5.34 4 5 C4 4.34 4 3.68 4 3 C2.68 3 1.36 3 0 3 C-0.33 3.66 -0.66 4.32 -1 5 C-0.67 3.35 -0.34 1.7 0 0 Z " fill="#3B84C3" transform="translate(263,188)"/>
<path d="M0 0 C3 1 3 1 4 3 C4.039992 4.99960012 4.04346799 7.00047242 4 9 C2.01388388 7.01388388 1.08545288 5.55856751 0 3 C0 2.01 0 1.02 0 0 Z " fill="#3C77A8" transform="translate(85,181)"/>
<path d="M0 0 C0.66 0 1.32 0 2 0 C2 0.66 2 1.32 2 2 C2.99 2 3.98 2 5 2 C5.309375 2.78375 5.61875 3.5675 5.9375 4.375 C6.92875038 6.92330128 6.92875038 6.92330128 8 9 C3.33845958 7.50164772 2.13389249 4.11536409 0 0 Z " fill="#336E93" transform="translate(143,142)"/>
<path d="M0 0 C0.66 0 1.32 0 2 0 C0.90931332 3.77545388 0.0916909 6.47043472 -3 9 C-3 7.35 -3 5.7 -3 4 C-2.34 4 -1.68 4 -1 4 C-0.67 2.68 -0.34 1.36 0 0 Z " fill="#3A73A3" transform="translate(272,113)"/>
<path d="M0 0 C0.33 0 0.66 0 1 0 C0.67 2.31 0.34 4.62 0 7 C-1.65 6.67 -3.3 6.34 -5 6 C-3.625 4.5 -3.625 4.5 -2 3 C-1.34 3 -0.68 3 0 3 C0 2.01 0 1.02 0 0 Z " fill="#3D90D6" transform="translate(25,195)"/>
<path d="M0 0 C0.66 0 1.32 0 2 0 C1.67 0.94875 1.34 1.8975 1 2.875 C-0.10159191 5.77062452 -0.10159191 5.77062452 0 8 C-0.66 8 -1.32 8 -2 8 C-2.33 6.02 -2.66 4.04 -3 2 C-2.01 2 -1.02 2 0 2 C0 1.34 0 0.68 0 0 Z " fill="#38719C" transform="translate(358,186)"/>
<path d="M0 0 C1.5 1.375 1.5 1.375 3 3 C3 3.66 3 4.32 3 5 C3.66 5.33 4.32 5.66 5 6 C2.69 6.33 0.38 6.66 -2 7 C-1.01 6.67 -0.02 6.34 1 6 C0.67 4.02 0.34 2.04 0 0 Z " fill="#40729A" transform="translate(378,181)"/>
<path d="M0 0 C0.99 0.33 1.98 0.66 3 1 C3 2.32 3 3.64 3 5 C3.66 5 4.32 5 5 5 C4.67 6.32 4.34 7.64 4 9 C0 2.25 0 2.25 0 0 Z " fill="#4283B6" transform="translate(190,59)"/>
<path d="M0 0 C1.5 1.3125 1.5 1.3125 3 3 C3 3.99 3 4.98 3 6 C1.68 6 0.36 6 -1 6 C-0.67 4.02 -0.34 2.04 0 0 Z " fill="#398FD7" transform="translate(8,200)"/>
<path d="M0 0 C1.70884005 1.62339805 3.37446717 3.29319053 5 5 C5 5.66 5 6.32 5 7 C3.02 7 1.04 7 -1 7 C-0.01 6.67 0.98 6.34 2 6 C1.34 4.02 0.68 2.04 0 0 Z " fill="#4179A4" transform="translate(234,180)"/>
<path d="M0 0 C1.98 0.66 3.96 1.32 6 2 C5.01 2.66 4.02 3.32 3 4 C1.68 3.34 0.36 2.68 -1 2 C-0.67 1.34 -0.34 0.68 0 0 Z M-3 3 C-2.01 3.33 -1.02 3.66 0 4 C-0.99 4.33 -1.98 4.66 -3 5 C-3 4.34 -3 3.68 -3 3 Z " fill="#347AB8" transform="translate(247,114)"/>
<path d="M0 0 C0.66 1.32 1.32 2.64 2 4 C-2.75 5.125 -2.75 5.125 -5 4 C-3.35 2.68 -1.7 1.36 0 0 Z " fill="#3F80B2" transform="translate(196,34)"/>
<path d="M0 0 C0.33 0 0.66 0 1 0 C1 1.65 1 3.3 1 5 C0.67 5 0.34 5 0 5 C0 3.35 0 1.7 0 0 Z " fill="#1F1711" transform="translate(0,196)"/>
<path d="M0 0 C0.99 0.495 0.99 0.495 2 1 C1.67 1.66 1.34 2.32 1 3 C0.67 2.01 0.34 1.02 0 0 Z " fill="#0C0C0C" transform="translate(122,202)"/>
<path d="M0 0 C3 1 3 1 3 1 Z " fill="#262626" transform="translate(100,198)"/>
<path d="M0 0 C0.66 0 1.32 0 2 0 C1.67 0.66 1.34 1.32 1 2 C0.67 1.34 0.34 0.68 0 0 Z " fill="#000015" transform="translate(25,192)"/>
<path d="" fill="#253535" transform="translate(0,0)"/>
<path d="" fill="#555555" transform="translate(0,0)"/>
<path d="" fill="#000000" transform="translate(0,0)"/>
<path d="" fill="#000000" transform="translate(0,0)"/>
<path d="" fill="#2A2A2A" transform="translate(0,0)"/>
<path d="" fill="#000000" transform="translate(0,0)"/>
<path d="" fill="#333333" transform="translate(0,0)"/>
<path d="" fill="#000000" transform="translate(0,0)"/>
</svg>
